<svg xmlns="http://www.w3.org/2000/svg" viewBox="0 0 86.31 89.07"><title>&#x8D44;&#x6E90; 45</title><path d="M26.39.05c5.52 0 11-.15 16.56.05a93.6 93.6 0 0 1 11.68 1.21 28.08 28.08 0 0 1 9.6 3.45 21.71 21.71 0 0 1 9.11 9.88A29.51 29.51 0 0 1 75.8 30.4a30.42 30.42 0 0 1-2.37 9 26.42 26.42 0 0 1-5.14 7.6c-.75.78-1.07.82-1.83.07a79.7 79.7 0 0 0-10.53-8.67c-.88-.6-.92-.9-.19-1.61 3.51-3.41 4.34-7.65 3.51-12.24a9.7 9.7 0 0 0-2.68-5 14.39 14.39 0 0 0-7.07-4 42.25 42.25 0 0 0-10.74-1.15H24.59c-1.28 0-1.51.19-1.52 1.48v8.19c0 1.12-.19 1.38-1.29 1.19a70.12 70.12 0 0 0-13.66-.52c-.79 0-1-.4-1-1.1V1.94C7.13.3 7.31.12 8.91.12h17.48z" fill="#324681"/><path d="M75.67 89.07h-9.29c-1.31 0-1.26-.06-1.45-1.31-.37-2.38-.76-4.76-1.27-7.11A59.28 59.28 0 0 0 62 74.46a55.51 55.51 0 0 0-2.5-6.38 92.65 92.65 0 0 0-4.34-8.26 62.34 62.34 0 0 0-10.03-12.44 58.72 58.72 0 0 0-8.73-7.11 67.87 67.87 0 0 0-7.94-4.55 67.54 67.54 0 0 0-9.74-3.9 51.64 51.64 0 0 0-14.08-2.41c-1.4 0-2.8-.17-4.19-.27a1.48 1.48 0 0 1-.45-.23c.09-.17.14-.39.28-.5a1.1 1.1 0 0 1 .53-.15 77.12 77.12 0 0 1 18-.62A61.2 61.2 0 0 1 27.57 29c2.75.62 5.43 1.58 8.14 2.41a63.8 63.8 0 0 1 15.16 7.23 75.05 75.05 0 0 1 13.24 10.55 74.61 74.61 0 0 1 9.4 11.24 101.19 101.19 0 0 1 6 10.06c1.74 3.39 3.16 6.94 4.57 10.48.73 1.83 1.15 3.8 1.72 5.7.12.41.28.8.41 1.21.29.9.1 1.18-.85 1.19z" fill="#d7000f"/><path d="M0 31a2.94 2.94 0 0 1 .93-.2c2.68.41 5.38.78 8 1.31a50.78 50.78 0 0 1 5.66 1.51 49.13 49.13 0 0 1 4.93 1.9 67 67 0 0 1 6.33 3.06 52.1 52.1 0 0 1 6.23 4.18 79.09 79.09 0 0 1 6.9 6A56.88 56.88 0 0 1 47.65 60a53.09 53.09 0 0 1 4.62 9.65 87.2 87.2 0 0 1 2.45 8.71 39.33 39.33 0 0 1 1.19 9.54c0 1.12-.09 1.2-1.21 1.2H36.21c-1.32 0-1.42-.14-1.12-1.47A44.66 44.66 0 0 0 35.72 71a58.47 58.47 0 0 0-1.84-7.17 40.86 40.86 0 0 0-5.6-11.47 51.66 51.66 0 0 0-10-11 53.59 53.59 0 0 0-10.37-6.78c-2.39-1.19-4.95-2-7.43-3A4.93 4.93 0 0 1 0 31.3z" fill="#d7000f"/><path d="M7.15 62.94V38.83c0-1.16.39-1.37 1.4-.84a51.72 51.72 0 0 1 9 6.24 67.16 67.16 0 0 1 4.93 4.91 2.46 2.46 0 0 1 .52 1.18 8 8 0 0 1 .08 1.47V87.3c0 .88-.4 1.2-1.24 1.2H8.5c-1.14 0-1.35-.22-1.35-1.35V62.94z" fill="#324681"/></svg>